<svg id="Layer_1" data-name="Layer 1" xmlns="http://www.w3.org/2000/svg" viewBox="0 0 556.37 502.22"><title>MIF</title><polygon points="374.65 146.69 374.65 146.7 362.6 167.57 362.59 167.57 362.59 167.58 350.54 188.46 338.48 209.34 326.43 230.22 326.43 230.23 326.42 230.23 314.37 251.11 314.36 251.11 314.36 251.12 302.31 272 290.25 292.88 278.2 313.76 278.19 313.76 278.19 313.77 266.14 334.65 254.08 355.53 242.02 376.42 229.97 397.3 229.96 397.3 217.91 418.18 217.91 418.19 193.79 459.95 181.73 480.84 169.68 501.72 145.56 501.72 157.61 480.84 157.62 480.84 157.62 480.83 169.67 459.95 181.73 439.07 193.79 418.18 205.84 397.3 205.85 397.3 217.9 376.42 217.9 376.41 229.96 355.53 242.01 334.65 242.02 334.65 254.08 313.76 266.13 292.88 278.19 271.99 290.25 251.11 302.3 230.23 302.3 230.22 314.36 209.34 314.37 209.34 314.37 209.33 326.42 188.46 326.42 188.45 338.48 167.57 350.53 146.69 338.48 125.81 326.42 104.92 314.37 125.8 314.37 125.81 314.36 125.81 302.31 146.69 290.25 167.57 278.19 188.46 266.14 209.34 266.13 209.34 254.08 230.22 254.08 230.23 254.07 230.23 242.02 251.11 229.96 271.99 217.9 292.88 205.85 313.76 193.79 334.64 193.79 334.65 181.73 355.53 169.68 376.41 169.68 376.42 169.67 376.42 157.62 397.3 145.56 418.18 145.56 418.19 133.5 439.07 121.45 459.95 109.39 480.84 109.38 480.84 97.33 501.72 73.22 501.72 85.27 480.84 85.28 480.84 97.33 459.95 121.45 418.19 121.45 418.18 133.5 397.3 145.56 376.42 157.62 355.53 169.67 334.65 169.68 334.65 181.73 313.76 205.85 272 205.85 271.99 217.91 251.11 229.96 230.23 242.02 209.34 254.08 188.46 266.13 167.57 266.14 167.57 278.19 146.69 278.19 146.68 290.25 125.81 290.25 125.8 302.31 104.92 314.36 84.04 302.31 63.16 302.31 63.15 302.3 63.15 290.25 42.27 266.13 84.03 266.13 84.04 254.08 104.91 254.08 104.92 254.07 104.92 242.02 125.8 229.96 146.69 217.91 167.57 217.9 167.57 205.85 188.46 205.84 188.46 193.79 209.34 181.73 230.23 169.67 251.11 157.62 271.99 145.56 292.88 121.44 334.64 121.44 334.65 109.39 355.53 109.38 355.53 97.33 376.42 85.27 397.3 73.21 418.18 61.16 439.07 49.1 459.95 37.04 480.84 24.99 501.72 0.87 501.72 12.93 480.84 24.99 459.95 37.04 439.07 49.1 418.18 61.16 397.3 73.21 376.42 73.22 376.42 73.22 376.41 85.27 355.53 97.33 334.65 109.39 313.76 121.44 292.88 121.45 292.88 133.5 271.99 145.56 251.11 157.61 230.23 157.62 230.23 169.67 209.34 181.73 188.46 193.79 167.57 205.84 146.69 205.85 146.69 205.85 146.68 217.9 125.8 229.96 104.92 242.01 84.04 242.03 84.04 242.02 84.03 254.07 63.15 254.08 63.15 266.13 42.27 266.13 42.26 278.19 21.38 290.24 0.5 290.25 0.5 302.3 21.38 314.36 42.27 314.37 42.27 314.37 42.28 326.42 63.15 338.48 84.04 350.53 104.92 350.54 104.92 350.54 104.93 362.59 125.8 362.59 125.81 374.65 146.69" style="stroke:#000;stroke-miterlimit:10"/><polygon points="459.05 292.88 434.94 292.88 422.88 272 410.82 251.11 398.77 271.99 398.77 272 398.76 272 386.71 292.87 386.71 292.88 374.65 313.76 362.59 334.65 350.54 355.53 338.48 376.41 338.48 376.42 326.42 397.3 314.37 418.18 314.37 418.19 314.36 418.19 302.31 439.07 278.19 480.83 278.19 480.84 350.53 480.84 338.48 501.72 193.8 501.72 205.85 480.84 254.08 480.84 266.14 459.95 278.19 439.07 290.25 418.19 290.25 418.18 302.31 397.3 314.36 376.42 314.37 376.42 326.42 355.53 326.43 355.53 338.48 334.65 350.54 313.77 350.54 313.76 362.6 292.88 374.65 272 374.65 271.99 386.71 251.11 398.77 230.23 386.71 209.34 374.65 188.47 374.65 188.46 374.66 188.46 386.71 167.58 398.76 188.46 410.82 209.34 410.82 209.35 422.88 230.23 434.93 251.11 434.94 251.11 434.94 251.12 446.99 272 447 272 459.05 292.88" style="stroke:#000;stroke-miterlimit:10"/><polygon points="555.51 459.95 531.4 459.95 507.28 418.19 507.28 418.18 495.23 397.3 483.17 376.42 471.11 355.54 459.06 376.42 447 397.3 459.06 418.18 459.06 418.19 471.11 439.07 471.12 439.07 483.17 459.95 459.06 459.95 447 439.07 447 439.06 434.95 418.19 434.94 418.19 422.88 439.07 410.83 459.95 410.83 459.96 386.71 501.72 362.6 501.72 374.65 480.84 386.71 459.95 398.77 439.07 410.82 418.19 422.88 397.3 422.89 397.3 434.94 376.42 434.94 376.41 447 355.53 459.05 334.65 471.11 313.77 483.17 334.65 495.22 355.53 495.22 355.54 507.28 376.42 519.34 397.3 531.4 418.19 543.45 439.07 543.46 439.07 543.46 439.08 555.51 459.95" style="stroke:#000;stroke-miterlimit:10"/></svg>