<svg data-name="Layer 1" xmlns="http://www.w3.org/2000/svg" viewBox="0 0 32 28.566" width="32" height="28.566"><path style="stroke:#000;stroke-miterlimit:10" d="M2.648.023h26.704a2.624 2.624 0 0 1 2.625 2.625v23.271a2.624 2.624 0 0 1-2.625 2.624H2.648a2.624 2.624 0 0 1-2.625-2.624V2.648A2.624 2.624 0 0 1 2.648.023z"/><path style="fill:#fff" d="M20.285 8.838v.001l-.565.978h-.001v.001l-.564.978-.566.979-.564.979h-.001l-.565.979-.565.979-.565.978-.565.979v.001l-.565.978-.566.979-.565.979-.565.979-.565.978v.001l-1.13 1.957-.566.979-.564.979H9.547l.565-.979.565-.979.565-.979.566-.979.564-.978h.001l.565-.979.565-.979.565-.979.565-.979.565-.979.566-.979.565-.978.565-.979.565-.979v-.001l.565-.978.565-.979.565-.979-.565-.978-.565-.979-.565.978v.001l-.565.978-.565.979-.565.979-.565.979h-.001l-.565.979-.565.979-.565.978-.565.979-.565.979-.565.979-.566.979-.564.979h-.001l-.565.979-.565.978v.001l-.565.978-.565.979-.565.979h-.001l-.564.979H6.156l.565-.979h.001l.565-.979 1.13-1.957v-.001l.565-.978.565-.979.565-.979.565-.979h.001l.564-.979 1.131-1.957v-.001l.565-.978.565-.979.565-.979.565-.979.565-.979h.001l.565-.979.565-.978v-.001l.565-.978.565-.979-.565-.979-.565-.979-1.131 1.957v.001l-.565.978v.001l-.565.978-.565.979-.565.979-.565.979h-.001l-.564.979-.566.979-.565.979-.565.978-.565.979-1.13 1.958-.565.979h-.001l-.564.979-.566.979-.565.978-.565.979-.565.979-.565.979-.565.979H2.765l.566-.979.565-.979.565-.979.565-.979.565-.978.565-.979.565-.979.566-.979.565-.979.565-.979.565-.979.565-.978.565-.979.565-.979.565-.979.566-.979.564-.979h.001l.565-.979.565-.978.565-.979h.001l-.001-.001.565-.978.565-.979.566-.979.564-.979h.001l.565.979.565.979v.001l.565.978.565.979.565.979h.001l.564.978v.001l.566.978Zm3.956 6.852h-1.13l-.566-.978-.565-.979-.565.978v.001l-.565.978-.565.979-.566.979-.564.979-.566.979-.565.979-.565.978v.001l-.565.978-1.13 1.958h3.39l-.565.979h-6.781l.565-.979h2.26l.566-.979.565-.979.565-.978v-.001l.565-.978.565-.979.565-.979h.001l.564-.979.566-.978v-.001l.565-.979.565-.978v-.001l.565-.978.565-.979-.565-.979-.565-.978v-.001l.565-.978.565.978.565.979.565.979.565.979h.001l.564.979h.001l.565.978Zm4.521 7.831h-1.13l-1.131-1.957v-.001l-.565-.978-.565-.979-.565-.979-.565.979-.565.979.565.978v.001l.565.978.565.979h-1.13l-.565-.979-.565-.978-.566.978-.565.979v.001l-1.13 1.957h-1.13l.565-.979.565-.979.565-.979.565-.978.565-.979h.001l.565-.979.565-.979.565-.979.565-.978.565.978.565.979.565.979.565.979.566.979.564.978h.001v.001l.565.978Z"/></svg>